PathFileType	4	(X/Y/Z)	RBDS016\RBDS016runT45.trc
DataRate	CameraRate	NumFrames	NumMarkers	Units	OrigDataRate	OrigDataStartFrame	OrigNumFrames
150.000000	150.000000	4	33	mm	150.000000	3937	4500
Frame#	Time	L.ASIS			L.Heel.Bottom			L.Heel.Lateral			L.Heel.Top			L.Iliac.Crest			L.MT1			L.MT5			L.PSIS			L.Shank.Bottom.Lateral			L.Shank.Bottom.Medial			L.Shank.Top.Lateral			L.Shank.Top.Medial			L.Thigh.Bottom.Lateral			L.Thigh.Bottom.Medial			L.Thigh.Top.Lateral			L.Thigh.Top.Medial			R.ASIS			R.ASY			R.Heel.Bottom			R.Heel.Lateral			R.Heel.Top			R.Iliac.Crest			R.MT1			R.MT5			R.PSIS			R.Shank.Bottom.Lateral			R.Shank.Bottom.Medial			R.Shank.Top.Lateral			R.Shank.Top.Medial			R.Thigh.Bottom.Lateral			R.Thigh.Bottom.Medial			R.Thigh.Top.Lateral			R.Thigh.Top.Medial			
		X1	Y1	Z1	X2	Y2	Z2	X3	Y3	Z3	X4	Y4	Z4	X5	Y5	Z5	X6	Y6	Z6	X7	Y7	Z7	X8	Y8	Z8	X9	Y9	Z9	X10	Y10	Z10	X11	Y11	Z11	X12	Y12	Z12	X13	Y13	Z13	X14	Y14	Z14	X15	Y15	Z15	X16	Y16	Z16	X17	Y17	Z17	X18	Y18	Z18	X19	Y19	Z19	X20	Y20	Z20	X21	Y21	Z21	X22	Y22	Z22	X23	Y23	Z23	X24	Y24	Z24	X25	Y25	Z25	X26	Y26	Z26	X27	Y27	Z27	X28	Y28	Z28	X29	Y29	Z29	X30	Y30	Z30	X31	Y31	Z31	X32	Y32	Z32	X33	Y33	Z33	

3938	26.24666666666667	2432.572860310181	908.4121167465248	867.0480323990148	2549.301886947954	24.53774795713491	968.8503693067165	2558.26078373442	38.94834056787478	919.4192471714747	2545.645211096321	69.52284913137143	959.0715092384809	2342.991807163454	968.4254053451871	816.8921689184948	2749.717175917392	106.6386781592839	940.7439677022646	2698.090759806993	66.68746762038944	852.7144623932537	2255.455565620525	930.5603534228131	947.2132070677684	2550.059595733141	159.9208518168242	883.9204315840307	2534.187548470935	166.4601228573142	937.4867400145207	2521.185590326402	233.4899157429282	868.7250853682373	2507.337128655858	240.9127060025396	920.2625004545577	2469.691472176427	550.060615561492	812.6677396776647	2415.168206514938	528.6676147157468	855.8555027650971	2418.20561464996	644.9734296645811	794.0854623398835	2366.597399585696	624.5470019642928	836.1642356954261	2455.204100976471	885.8589171042211	1087.912170845069	1801.631131768375	385.5616916986929	1025.120224220129	1824.093208318769	560.7303475224347	945.2504292762164	1831.960090836395	545.4392676659568	997.8520123326374	1866.61613842636	534.5994665504551	959.26592874439	2397.521329253087	967.8897938651212	1133.940375226333	1762.829257145505	356.6468872169597	991.5783119894397	1755.85992923715	427.8717643478107	1075.022325688016	2272.217888060419	935.9844883917417	1048.84372356758	1914.822671992984	491.8876248780338	1047.919035596964	1925.47735689364	523.216854058538	1009.243423724748	1995.706583475186	497.0405846812494	1072.704684973643	2002.71504843145	530.4977612940626	1032.290024346075	2251.667736839758	535.6948119686798	1123.008357606348	2203.991502456803	555.2652155493894	1072.176301442772	2271.780211661415	642.3206229755975	1143.283133183121	2225.370299731	660.8000052471181	1095.920414653788	
3939	26.25333333333333	2431.30928411036	905.6345989363291	865.5460840812267	2523.706736895676	24.10674874169438	970.1844173918245	2533.802369871815	38.73552773926153	921.2454516661066	2523.834129711816	69.3600432285766	961.6448502845658	2339.330608635254	963.446945959518	816.4203944262956	2729.881067552921	92.18085015247975	943.1189263667	2674.991756800202	58.43280800297199	854.2614453144117	2253.484865810971	923.8085133363001	949.0450350602943	2534.081681926722	155.4617097986526	885.9792539072847	2517.840455570949	163.0691956770029	939.259086822508	2508.63197483567	230.0507042082472	869.8947511862851	2494.525192902911	238.4086060405407	921.2251208391904	2467.447361849077	546.7171829268085	812.9302937084861	2412.542063901068	525.2272741293403	855.5206237116211	2416.337817148188	641.7712636671945	794.1779976759188	2364.117521123635	621.2559974659756	835.5204538073269	2454.780137926022	880.7087568823819	1087.387340213632	1815.820122610011	394.3497855614109	1025.710645867722	1844.707474561167	569.2340072971346	946.7099193207961	1852.201057115318	553.3386240668469	999.2505337600085	1886.270685196657	541.3013247043242	960.3926476647702	2397.556027577578	960.8800396208358	1134.870115287442	1775.575383990006	367.276666194824	992.6165566750917	1771.937325438044	438.4587615185853	1076.424986285762	2271.525677254198	926.9900652973982	1050.598184459143	1932.892784979806	495.9900530111112	1049.015359758337	1945.128455123234	526.6513359459418	1010.291692047108	2013.918302128229	497.0397728733478	1073.671597163954	2022.577346196985	530.0434247927257	1033.263205209041	2261.54374445972	526.3174478038432	1123.570830479751	2212.848766872743	544.0993940041274	1072.983197829338	2277.978612312675	633.7059822355305	1143.555316179425	2230.796383545432	650.5197464122355	1096.285209873023	
3940	26.26	2429.756213656871	902.7301006716217	864.0675436610371	2496.61092102851	24.18394589594079	971.365755695726	2507.964838738308	39.21334071970132	923.0148332327849	2500.438968083513	69.61720779367495	964.1995454627105	2335.538275689863	958.5921664936503	815.8302257982108	2708.064661737945	78.78689617530681	945.867509633372	2650.372046531995	51.44654429153723	856.077190525914	2251.36551022805	917.5815725495972	951.014798429507	2516.811957996865	151.8771825002413	888.1259842991484	2500.246926238034	160.6122358953152	941.0891238852994	2495.176700288891	227.4227191763886	871.1240205465299	2480.859319375583	236.7754962360337	922.2284444943783	2464.868712624726	543.2755891289333	812.8679727662524	2409.754050582008	521.7654387809097	855.131245299546	2413.984818362979	638.4108318724244	793.9355329827448	2361.325735465683	617.8845657534914	834.7886700203509	2454.163423441397	875.1481619200449	1086.65763987991	1831.88348521219	401.3460801343217	1026.509297448033	1865.952616250026	576.0705993223033	948.7932146234722	1873.202747507861	559.4933598099277	1001.17399911867	1906.677245209314	546.6029305271603	961.9370985919531	2397.748891172347	953.336323172423	1135.630047404297	1790.399065429452	376.0068453543151	993.7782777756202	1789.680943407442	446.7638315835482	1078.174878525928	2270.465349871793	918.2608494981289	1052.38287512255	1952.081590358835	498.8725019088133	1050.40122250388	1965.776189623596	528.8467845905618	1011.585293779972	2033.116150879782	496.0722351899774	1074.837387993809	2043.283932217085	528.5897970278645	1034.420907836118	2272.036122836023	517.338587499886	1124.215197574699	2222.404691778133	533.1627198645948	1073.823242028608	2284.491839412919	625.4148437341244	1143.855986971766	2236.704844020619	640.371484183582	1096.559168021224	
3941	26.26666666666667	2427.873830493965	899.6781519086987	862.5924349501636	2468.507580922793	24.74808231903124	972.4162652684931	2481.140123067706	40.33691048578898	924.7096860689126	2475.76608956018	70.26359483737633	966.6895913556541	2331.646661815473	953.9132416288345	815.1420074943119	2684.459433839115	67.09584869222815	948.7401879857127	2624.490935952324	46.017294131565	858.019650051679	2249.092949518807	912.0469270734177	953.0272552363492	2498.349926359948	149.3473048284684	890.2981708150727	2481.580269381137	159.2394355137206	942.9392593761949	2480.857844027532	225.7323993987974	872.4147291081856	2466.439622601887	236.1130605684968	923.2924034204434	2461.80480544864	539.7818102798395	812.5212329755359	2406.670926975183	518.360461718001	854.7668187831678	2411.021932815561	634.9610546183218	793.4114416470665	2358.128795064917	614.5240817322658	834.0645499728943	2453.316766583991	869.3254788297289	1085.716960086704	1849.571151539002	406.4593043729878	1027.468535846824	1887.469797173094	581.3244778217054	951.5646009372037	1894.634959623711	563.9575365085303	1003.675387256902	1927.532825431008	550.6004967010578	963.9485342920536	2397.908414868416	945.4867195505212	1136.203456222281	1807.043880380351	382.7177202232505	994.9659819205998	1808.779924126568	452.6454179246823	1080.216072440595	2269.000523625023	910.0779169878267	1054.10918180793	1972.177288863464	500.5873935153922	1052.076959808836	1987.171709881196	529.920071590195	1013.150649540789	2053.135069039478	494.2637922530145	1076.211402512425	2064.638871974653	526.318149093358	1035.786367203315	2283.260258148466	508.9287709839316	1124.92697814359	2232.804676761036	522.6268797974059	1074.683379437172	2291.406206894032	617.5698502527255	1144.183983825385	2243.173106715821	630.4710787609645	1096.771768214193	
